<svg xmlns="http://www.w3.org/2000/svg" xmlns:xlink="http://www.w3.org/1999/xlink" width="185" height="244.083" viewBox="0 0 185 244.083"><defs><filter id="a" x="42.348" y="147.954" width="102.753" height="90.905" filterUnits="userSpaceOnUse"><feOffset dy="5.021" input="SourceAlpha"/><feGaussianBlur stdDeviation="3.013" result="b"/><feFlood flood-opacity="0.161"/><feComposite operator="in" in2="b"/><feComposite in="SourceGraphic"/></filter><filter id="c" x="59.399" y="163.885" width="83.795" height="80.197" filterUnits="userSpaceOnUse"><feOffset dy="5" input="SourceAlpha"/><feGaussianBlur stdDeviation="3" result="d"/><feFlood flood-opacity="0.161"/><feComposite operator="in" in2="d"/><feComposite in="SourceGraphic"/></filter></defs><g transform="translate(-103 -290)"><g transform="translate(-14 91)"><path d="M372,99l1,1Z" transform="translate(-104 100)" fill="#5c4d44"/><path d="M373,99l1,1Z" transform="translate(-104 100)" fill="#7b6e67"/><path d="M273,136c5.689.566,10.277,2.688,16,1l6.57-1.984s-10.4.452-11.15-5.175S278.014,121.292,276,120l6-3,2.88-1.409L282,115a36.54,36.54,0,0,0-8-1,33.433,33.433,0,0,0,5-7,46.338,46.338,0,0,0-11,1,18.561,18.561,0,0,0,3-6,27.942,27.942,0,0,0-12,3l1-4c-8.38,1.494-19.995,4.449-21.67,14-.679,3.873,1.915,8.072,1.01,11.576-1.24,4.8-6.066,8.125-7.34,13.424,8.633-2.049,13.924,2.1,10.12,11-5.549,12.981-20.724,21.643-20.78,37-.162,45.1,70.535,41.49,70.66,87,7.377-4.783-.794-18.721-4.36-24-7.94-11.753-22.834-15.452-30.535-27-7.128-10.688-9.792-30.778,6.895-34.606,7.354-1.687,12.419,2.523,19,4.606-5.7-11.585-24.465-9.948-31.03.015-6.886,10.451-2.244,21.7,2.03,31.985-13.9-7.743-35.145-24.347-28.9-43,3.569-10.651,13.081-17.26,18.074-27,2.081-4.059,5.409-14.133,1.218-17.91-2.181-1.966-5.656-1.964-8.4-2.09,2.939-3.21,5.824-6.411,10-8,10.326-3.943,21.486,4.832,26.752,13,8.634,13.4,6.926,30.134,14.068,44,4.342,8.431,13.257,15.255,23.179,13.786,22.683-3.357,18.263-34.831,21.261-50.786,4.209-22.4,22.926-46.433,47.739-45.946,9.66.189,16.5,5.424,25,8.946-1.616-5.252-7.037-7.7-12-9.452-11.991-4.229-26.288-2.232-37,4.545-15,9.487-24.022,25.583-26.7,42.907-1.539,9.947-.775,20.234-3.456,30-2.143,7.806-8.9,17.081-17.84,17.2-8.238.113-14.84-7.51-18.19-14.2C281.384,167.159,283.485,149.791,273,136Z" transform="translate(-104 100)" fill="#fdfcfa"/><path d="M389,100l1,1Z" transform="translate(-104 100)" fill="#7b6e67"/><path d="M255,101l1,1Z" transform="translate(-104 100)" fill="#5c4d44"/><path d="M256,101l1,1Z" transform="translate(-104 100)" fill="#b2a59d"/><path d="M267,101l1,1Z" transform="translate(-104 100)" fill="#5c4d44"/><path d="M364,101l1,1Z" transform="translate(-104 100)" fill="#7b6e67"/><path d="M365,101l1,1Z" transform="translate(-104 100)" fill="#b2a59d"/><path d="M392,101l1,1-1-1m-139,1,1,1Z" transform="translate(-104 100)" fill="#7b6e67"/><path d="M254,102l1,1Z" transform="translate(-104 100)" fill="#b2a59d"/><path d="M263,102l1,1Z" transform="translate(-104 100)" fill="#5c4d44"/><path d="M361,102l1,1Z" transform="translate(-104 100)" fill="#5c4d44"/><path d="M260,103l1,1Z" transform="translate(-104 100)" fill="#351b0d"/><path d="M261,103l1,1-1-1m98,0,1,1Z" transform="translate(-104 100)" fill="#5c4d44"/><path d="M368,103l1,1Z" transform="translate(-104 100)" fill="#b2a59d"/><path d="M369,103l1,1-1-1m18,0,1,1Z" transform="translate(-104 100)" fill="#7b6e67"/><path d="M388,103l1,1-1-1m8,0,1,1Z" transform="translate(-104 100)" fill="#b2a59d"/><path d="M397,103l1,1Z" transform="translate(-104 100)" fill="#5c4d44"/><path d="M357,104l1,1Z" transform="translate(-104 100)" fill="#5c4d44"/><path d="M365,104l1,1Z" transform="translate(-104 100)" fill="#b2a59d"/><path d="M366,104l1,1-1-1m24,0,1,1Z" transform="translate(-104 100)" fill="#5c4d44"/><path d="M391,104l1,1Z" transform="translate(-104 100)" fill="#7b6e67"/><path d="M398,104l1,1Z" transform="translate(-104 100)" fill="#b2a59d"/><path d="M399,104l1,1Z" transform="translate(-104 100)" fill="#5c4d44"/><path d="M355,105l1,1Z" transform="translate(-104 100)" fill="#5c4d44"/><path d="M363,105l1,1Z" transform="translate(-104 100)" fill="#7b6e67"/><path d="M393,105l1,1Z" transform="translate(-104 100)" fill="#5c4d44"/><path d="M400,105l1,1Z" transform="translate(-104 100)" fill="#b2a59d"/><path d="M405,105l1,1-1-1m-163,1,1,1Z" transform="translate(-104 100)" fill="#5c4d44"/><path d="M254,106a49.114,49.114,0,0,1-7,7l-1-5c-5.487,4.793-5.347,10.559-3,17,6.275-.793,11.99-1.437,18,1.214,3.592,1.584,6.328,4.673,10,6.048,3.759,1.408,8.106,1.5,12,2.738-2.4-8.783-5.713-10-14-12a16.4,16.4,0,0,1,6-5c-3.024-.842-5.917.479-9,1,1.674-3.246,3.948-5.986,6-9-3.942,1.168-7.23,3.438-11,5,.683-3.44,2.217-6,4-9-4.232,1.653-7.008,5.015-11,7C254.3,110.493,254.741,108.393,254,106Z" transform="translate(-104 100)" fill="#ffa50e"/><path d="M277,106l1,1Z" transform="translate(-104 100)" fill="#7b6e67"/><path d="M354,106l1,1-1-1m6,0,1,1Z" transform="translate(-104 100)" fill="#b2a59d"/><path d="M361,106l1,1-1-1m34,0,1,1Z" transform="translate(-104 100)" fill="#5c4d44"/><path d="M401,106l1,1Z" transform="translate(-104 100)" fill="#b2a59d"/><path d="M241,107l1,1Z" transform="translate(-104 100)" fill="#7b6e67"/><path d="M358,107l1,1Z" transform="translate(-104 100)" fill="#b2a59d"/><path d="M397,107l1,1-1-1m6,0,1,1Z" transform="translate(-104 100)" fill="#7b6e67"/><path d="M240,108l1,1Z" transform="translate(-104 100)" fill="#5c4d44"/><path d="M251,108l1,1Z" transform="translate(-104 100)" fill="#7b6e67"/><path d="M263,108l1,1-1-1m88,0,1,1Z" transform="translate(-104 100)" fill="#b2a59d"/><path d="M357,108l1,1Z" transform="translate(-104 100)" fill="#5c4d44"/><path d="M399,108l1,1Z" transform="translate(-104 100)" fill="#b2a59d"/><path d="M404,108l1,1Z" transform="translate(-104 100)" fill="#7b6e67"/><path d="M250,109l1,1-1-1m4,0,1,1Z" transform="translate(-104 100)" fill="#b2a59d"/><path d="M262,109l1,1Z" transform="translate(-104 100)" fill="#5c4d44"/><path d="M355,109l1,1-1-1m45,0,1,1Z" transform="translate(-104 100)" fill="#7b6e67"/><path d="M404,109l1,1-1-1m-165,1,1,1Z" transform="translate(-104 100)" fill="#b2a59d"/><path d="M250,110l1,1Z" transform="translate(-104 100)" fill="#5c4d44"/><path d="M269,110l1,1Z" transform="translate(-104 100)" fill="#b2a59d"/><path d="M277,110l1,1Z" transform="translate(-104 100)" fill="#7b6e67"/><path d="M354,110l1,1-1-1m50,0,1,1Z" transform="translate(-104 100)" fill="#5c4d44"/><path d="M242,111l1,1Z" transform="translate(-104 100)" fill="#b2a59d"/><path d="M246,111l1,1Z" transform="translate(-104 100)" fill="#5c4d44"/><path d="M249,111l1,1Z" transform="translate(-104 100)" fill="#b2a59d"/><path d="M257,111l1,1-1-1m4,0,1,1-1-1m6,0,1,1Z" transform="translate(-104 100)" fill="#7b6e67"/><path d="M271,111l1,1Z" transform="translate(-104 100)" fill="#b2a59d"/><path d="M276,111l1,1-1-1m71,0,1,1Z" transform="translate(-104 100)" fill="#5c4d44"/><path d="M352,111l1,1Z" transform="translate(-104 100)" fill="#b2a59d"/><path d="M238,112l1,1Z" transform="translate(-104 100)" fill="#7b6e67"/><path d="M254,112l1,1Z" transform="translate(-104 100)" fill="#5c4d44"/><path d="M346,112l1,1Z" transform="translate(-104 100)" fill="#5c4d44"/><path d="M351,112l1,1Z" transform="translate(-104 100)" fill="#7b6e67"/><path d="M238,113l1,1-1-1m3,0,1,1Z" transform="translate(-104 100)" fill="#b2a59d"/><path d="M264,113l1,1Z" transform="translate(-104 100)" fill="#7b6e67"/><path d="M269,113l1,1Z" transform="translate(-104 100)" fill="#b2a59d"/><path d="M370,113l1,1Z" transform="translate(-104 100)" fill="#7b6e67"/><path d="M305,204h-4.141a3.288,3.288,0,0,0,1.453,1.359A9.424,9.424,0,0,0,305,206c4.016,0,8.163.275,12-1.133,12.191-4.475,16.829-18.353,19.424-29.867,4.8-21.324,8.491-49.846,32.576-57.9,5.067-1.693,9.854-.511,15-.105-2.621-4.158-7.451-4.182-12-3.383A34.9,34.9,0,0,0,349.761,127c-12.111,16.2-11.542,36.683-18.2,55C327.023,194.5,318.93,203.711,305,204Z" transform="translate(-104 100)" fill="#fdfcfa"/><path d="M379,113l1,1Z" transform="translate(-104 100)" fill="#b2a59d"/><path d="M380,113l1,1Z" transform="translate(-104 100)" fill="#7b6e67"/><path d="M241,114l1,1Z" transform="translate(-104 100)" fill="#5c4d44"/><path d="M261,114l1,1Z" transform="translate(-104 100)" fill="#7b6e67"/><path d="M262,114l1,1Z" transform="translate(-104 100)" fill="#b2a59d"/><path d="M263,114l1,1Z" transform="translate(-104 100)" fill="#7b6e67"/><path d="M268,114l1,1-1-1m12,0,1,1Z" transform="translate(-104 100)" fill="#b2a59d"/><path d="M281,114l1,1-1-1m63,0,1,1Z" transform="translate(-104 100)" fill="#7b6e67"/><path d="M349,114l1,1Z" transform="translate(-104 100)" fill="#5c4d44"/><path d="M366,114l1,1Z" transform="translate(-104 100)" fill="#7b6e67"/><path d="M384,114l1,1Z" transform="translate(-104 100)" fill="#5c4d44"/><path d="M343,115l1,1-1-1m5,0,1,1Z" transform="translate(-104 100)" fill="#5c4d44"/><path d="M364,115l1,1Z" transform="translate(-104 100)" fill="#b2a59d"/><path d="M347,116l1,1Z" transform="translate(-104 100)" fill="#5c4d44"/><path d="M362,116l1,1-1-1m8,0,1,1Z" transform="translate(-104 100)" fill="#b2a59d"/><path d="M379,116l1,1Z" transform="translate(-104 100)" fill="#b2a59d"/><path d="M384,116l1,1Z" transform="translate(-104 100)" fill="#7b6e67"/><path d="M266,117l1,1-1-1m5,0,1,1-1-1m10,0,1,1Z" transform="translate(-104 100)" fill="#b2a59d"/><path d="M346,117l1,1Z" transform="translate(-104 100)" fill="#5c4d44"/><path d="M360,117l1,1-1-1m7,0,1,1Z" transform="translate(-104 100)" fill="#b2a59d"/><path d="M382,117l1,1Z" transform="translate(-104 100)" fill="#5c4d44"/><path d="M383,117l1,1Z" transform="translate(-104 100)" fill="#7b6e67"/><path d="M266,118l1,1Z" transform="translate(-104 100)" fill="#5c4d44"/><path d="M269,118l1,1Z" transform="translate(-104 100)" fill="#7b6e67"/><path d="M273,118l1,1Z" transform="translate(-104 100)" fill="#b2a59d"/><path d="M279,118l1,1-1-1m79,0,1,1-1-1m7,0,1,1-1-1m-94,1,1,1-1-1m6,0,1,1Z" transform="translate(-104 100)" fill="#7b6e67"/><path d="M340,119l1,1Z" transform="translate(-104 100)" fill="#b2a59d"/><path d="M344,119l1,1Z" transform="translate(-104 100)" fill="#7b6e67"/><path d="M357,119l1,1Z" transform="translate(-104 100)" fill="#b2a59d"/><path d="M363,119l1,1Z" transform="translate(-104 100)" fill="#5c4d44"/><path d="M270,120l1,1Z" transform="translate(-104 100)" fill="#7b6e67"/><path d="M276,120l1,1Z" transform="translate(-104 100)" fill="#b2a59d"/><path d="M339,120l1,1Z" transform="translate(-104 100)" fill="#5c4d44"/><path d="M343,120l1,1Z" transform="translate(-104 100)" fill="#b2a59d"/><path d="M361,120l1,1Z" transform="translate(-104 100)" fill="#7b6e67"/><path d="M241,121l1,1Z" transform="translate(-104 100)" fill="#b2a59d"/><path d="M278,121l1,1-1-1m64,0,1,1-1-1m17,0,1,1-1-1m-121,1,1,1Z" transform="translate(-104 100)" fill="#b2a59d"/><path d="M280,122l1,1Z" transform="translate(-104 100)" fill="#7b6e67"/><path d="M353,122l1,1Z" transform="translate(-104 100)" fill="#5c4d44"/><path d="M358,122l1,1-1-1m-116,1,1,1-1-1m28,0,1,1Z" transform="translate(-104 100)" fill="#7b6e67"/><path d="M271,123l1,1Z" transform="translate(-104 100)" fill="#b2a59d"/><path d="M281,123l1,1Z" transform="translate(-104 100)" fill="#b2a59d"/><path d="M337,123l1,1Z" transform="translate(-104 100)" fill="#7b6e67"/><path d="M341,123l1,1-1-1m11,0,1,1Z" transform="translate(-104 100)" fill="#5c4d44"/><path d="M357,123l1,1Z" transform="translate(-104 100)" fill="#7b6e67"/><path d="M239,124l1,1Z" transform="translate(-104 100)" fill="#b2a59d"/><path d="M246,124l1,1Z" transform="translate(-104 100)" fill="#7b6e67"/><path d="M247,124l1,1Z" transform="translate(-104 100)" fill="#b2a59d"/><path d="M277,124l1,1Z" transform="translate(-104 100)" fill="#5c4d44"/><path d="M278,124l1,1Z" transform="translate(-104 100)" fill="#b2a59d"/><path d="M282,124l1,1Z" transform="translate(-104 100)" fill="#7b6e67"/><path d="M340,124l1,1Z" transform="translate(-104 100)" fill="#b2a59d"/><path d="M351,124l1,1Z" transform="translate(-104 100)" fill="#5c4d44"/><path d="M258,125l1,1Z" transform="translate(-104 100)" fill="#b2a59d"/><path d="M259,125l1,1Z" transform="translate(-104 100)" fill="#7b6e67"/><path d="M279,125l1,1-1-1m57,0,1,1Z" transform="translate(-104 100)" fill="#b2a59d"/><path d="M240,126l1,1Z" transform="translate(-104 100)" fill="#7b6e67"/><path d="M261,126l1,1Z" transform="translate(-104 100)" fill="#b2a59d"/><path d="M262,126l1,1Z" transform="translate(-104 100)" fill="#5c4d44"/><path d="M283,126l1,1Z" transform="translate(-104 100)" fill="#b2a59d"/><path d="M335,126l1,1Z" transform="translate(-104 100)" fill="#5c4d44"/><path d="M339,126l1,1Z" transform="translate(-104 100)" fill="#7b6e67"/><path d="M253,127l1,1Z" transform="translate(-104 100)" fill="#7b6e67"/><path d="M280,127l1,1Z" transform="translate(-104 100)" fill="#7b6e67"/><path d="M335,127l1,1-1-1m14,0,1,1Z" transform="translate(-104 100)" fill="#b2a59d"/><path d="M353,127l1,1Z" transform="translate(-104 100)" fill="#5c4d44"/><path d="M370,127l1,1Z" transform="translate(-104 100)" fill="#7b6e67"/><path d="M371,127l1,1Z" transform="translate(-104 100)" fill="#b2a59d"/><path d="M315,209c7.171,5.4,18.019-2.454,22.787-8,13.639-15.875,7.791-39.535,17.894-57A30.629,30.629,0,0,1,367,132.417c3.613-1.966,7.7-1.823,10-5.417a29.062,29.062,0,0,0-9,1.559C342.829,137.88,349.526,171.3,340.481,191,335.083,202.758,326.228,205.587,315,209Z" transform="translate(-104 100)" fill="#fdfcfa"/><path d="M377,127l1,1-1-1m-139,1,1,1Z" transform="translate(-104 100)" fill="#7b6e67"/><path d="M244,128l1,1-1-1m14,0,1,1Z" transform="translate(-104 100)" fill="#b2a59d"/><path d="M265,128l1,1-1-1m19,0,1,1Z" transform="translate(-104 100)" fill="#7b6e67"/><path d="M334,128l1,1Z" transform="translate(-104 100)" fill="#5c4d44"/><path d="M348,128l1,1-1-1m4,0,1,1Z" transform="translate(-104 100)" fill="#7b6e67"/><path d="M367,128l1,1Z" transform="translate(-104 100)" fill="#5c4d44"/><path d="M260,129l1,1Z" transform="translate(-104 100)" fill="#7b6e67"/><path d="M266,129l1,1-1-1m15,0,1,1-1-1m3,0,1,1-1-1m53,0,1,1-1-1m14,0,1,1Z" transform="translate(-104 100)" fill="#b2a59d"/><path d="M365,129l1,1Z" transform="translate(-104 100)" fill="#5c4d44"/><path d="M236,130l1,1-1-1m26,0,1,1Z" transform="translate(-104 100)" fill="#7b6e67"/><path d="M270,130l1,1-1-1m11,0,1,1-1-1m52,0,1,1-1-1m4,0,1,1Z" transform="translate(-104 100)" fill="#5c4d44"/><path d="M347,130l1,1Z" transform="translate(-104 100)" fill="#b2a59d"/><path d="M363,130l1,1Z" transform="translate(-104 100)" fill="#5c4d44"/><path d="M371,130l1,1Z" transform="translate(-104 100)" fill="#b2a59d"/><path d="M372,130l1,1-1-1m-137,1,1,1Z" transform="translate(-104 100)" fill="#7b6e67"/><path d="M239,131l1,1Z" transform="translate(-104 100)" fill="#b2a59d"/><path d="M285,131l1,1Z" transform="translate(-104 100)" fill="#7b6e67"/><path d="M333,131l1,1-1-1m3,0,1,1Z" transform="translate(-104 100)" fill="#b2a59d"/><path d="M346,131l1,1Z" transform="translate(-104 100)" fill="#5c4d44"/><path d="M350,131l1,1Z" transform="translate(-104 100)" fill="#7b6e67"/><path d="M362,131l1,1-1-1m6,0,1,1Z" transform="translate(-104 100)" fill="#b2a59d"/><path d="M369,131l1,1Z" transform="translate(-104 100)" fill="#5c4d44"/><path d="M265,132l1,1Z" transform="translate(-104 100)" fill="#b2a59d"/><path d="M270,132l1,1Z" transform="translate(-104 100)" fill="#5c4d44"/><path d="M282,132l1,1Z" transform="translate(-104 100)" fill="#7b6e67"/><path d="M336,132l1,1Z" transform="translate(-104 100)" fill="#5c4d44"/><path d="M349,132l1,1-1-1m17,0,1,1Z" transform="translate(-104 100)" fill="#b2a59d"/><path d="M266,133l1,1Z" transform="translate(-104 100)" fill="#7b6e67"/><path d="M271,133l1,1-1-1m6,0,1,1Z" transform="translate(-104 100)" fill="#b2a59d"/><path d="M278,133l1,1Z" transform="translate(-104 100)" fill="#5c4d44"/><path d="M286,133l1,1-1-1m46,0,1,1Z" transform="translate(-104 100)" fill="#b2a59d"/><path d="M345,133l1,1Z" transform="translate(-104 100)" fill="#7b6e67"/><path d="M349,133l1,1-1-1m10,0,1,1Z" transform="translate(-104 100)" fill="#5c4d44"/><path d="M364,133l1,1Z" transform="translate(-104 100)" fill="#b2a59d"/><path d="M365,133l1,1Z" transform="translate(-104 100)" fill="#5c4d44"/><path d="M233,134l1,1Z" transform="translate(-104 100)" fill="#7b6e67"/><path d="M237,134l1,1-1-1m30,0,1,1Z" transform="translate(-104 100)" fill="#5c4d44"/><path d="M280,134l1,1Z" transform="translate(-104 100)" fill="#7b6e67"/><path d="M281,134l1,1-1-1m2,0,1,1Z" transform="translate(-104 100)" fill="#5c4d44"/><path d="M287,134l1,1Z" transform="translate(-104 100)" fill="#b2a59d"/><path d="M288,134l1,1Z" transform="translate(-104 100)" fill="#5c4d44"/><path d="M335,134l1,1Z" transform="translate(-104 100)" fill="#7b6e67"/><path d="M348,134l1,1Z" transform="translate(-104 100)" fill="#b2a59d"/><path d="M358,134l1,1Z" transform="translate(-104 100)" fill="#7b6e67"/><path d="M363,134l1,1-1-1m-127,1,1,1Z" transform="translate(-104 100)" fill="#b2a59d"/><path d="M268,135l1,1Z" transform="translate(-104 100)" fill="#5c4d44"/><path d="M331,135l1,1Z" transform="translate(-104 100)" fill="#5c4d44"/><path d="M344,135l1,1-1-1m13,0,1,1-1-1m5,0,1,1-1-1m-130,1,1,1Z" transform="translate(-104 100)" fill="#7b6e67"/><path d="M241,136l1,1Z" transform="translate(-104 100)" fill="#b2a59d"/><path d="M242,136l1,1Z" transform="translate(-104 100)" fill="#7b6e67"/><path d="M269,136l1,1Z" transform="translate(-104 100)" fill="#5c4d44"/><path d="M273,136l1,1Z" transform="translate(-104 100)" fill="#b2a59d"/><path d="M276,136l1,1Z" transform="translate(-104 100)" fill="#5c4d44"/><path d="M277,136l1,1-1-1m57,0,1,1-1-1m13,0,1,1Z" transform="translate(-104 100)" fill="#b2a59d"/><path d="M356,136l1,1-1-1m5,0,1,1Z" transform="translate(-104 100)" fill="#5c4d44"/><path d="M232,137l1,1-1-1m12,0,1,1Z" transform="translate(-104 100)" fill="#b2a59d"/><path d="M245,137l1,1Z" transform="translate(-104 100)" fill="#5c4d44"/><path d="M270,137l1,1-1-1m4,0,1,1Z" transform="translate(-104 100)" fill="#7b6e67"/><path d="M279,137l1,1Z" transform="translate(-104 100)" fill="#b2a59d"/><path d="M289,137l1,1-1-1m45,0,1,1Z" transform="translate(-104 100)" fill="#5c4d44"/><path d="M343,137l1,1Z" transform="translate(-104 100)" fill="#7b6e67"/><path d="M271,138l1,1Z" transform="translate(-104 100)" fill="#b2a59d"/><path d="M330,138l1,1Z" transform="translate(-104 100)" fill="#7b6e67"/><path d="M346,138l1,1-1-1m9,0,1,1Z" transform="translate(-104 100)" fill="#b2a59d"/><path d="M233,139l1,1Z" transform="translate(-104 100)" fill="#b2a59d"/><path d="M234,139l1,1Z" transform="translate(-104 100)" fill="#7b6e67"/><path d="M235,139l1,1Z" transform="translate(-104 100)" fill="#5c4d44"/><path d="M241,139l1,1Z" transform="translate(-104 100)" fill="#7b6e67"/><path d="M275,139l1,1-1-1m55,0,1,1-1-1m3,0,1,1Z" transform="translate(-104 100)" fill="#b2a59d"/><path d="M342,139l1,1Z" transform="translate(-104 100)" fill="#5c4d44"/><path d="M354,139l1,1Z" transform="translate(-104 100)" fill="#b2a59d"/><path d="M358,139l1,1-1-1m-126,1,1,1-1-1m14,0,1,1Z" transform="translate(-104 100)" fill="#7b6e67"/><path d="M272,140l1,1-1-1m4,0,1,1-1-1m57,0,1,1Z" transform="translate(-104 100)" fill="#5c4d44"/><path d="M329,141l1,1-1-1m16,0,1,1Z" transform="translate(-104 100)" fill="#5c4d44"/><path d="M353,141l1,1Z" transform="translate(-104 100)" fill="#b2a59d"/><path d="M341,142l1,1Z" transform="translate(-104 100)" fill="#7b6e67"/><path d="M352,142l1,1Z" transform="translate(-104 100)" fill="#5c4d44"/><path d="M356,142l1,1Z" transform="translate(-104 100)" fill="#7b6e67"/><path d="M274,143l1,1Z" transform="translate(-104 100)" fill="#b2a59d"/><path d="M332,143l1,1-1-1m12,0,1,1Z" transform="translate(-104 100)" fill="#7b6e67"/><path d="M352,143l1,1Z" transform="translate(-104 100)" fill="#b2a59d"/><path d="M278,144l1,1-1-1m62,0,1,1-1-1m11,0,1,1Z" transform="translate(-104 100)" fill="#5c4d44"/><path d="M275,145l1,1-1-1m3,0,1,1Z" transform="translate(-104 100)" fill="#b2a59d"/><path d="M340,145l1,1Z" transform="translate(-104 100)" fill="#7b6e67"/><path d="M351,145l1,1-1-1m3,0,1,1Z" transform="translate(-104 100)" fill="#b2a59d"/><path d="M275,146l1,1Z" transform="translate(-104 100)" fill="#5c4d44"/><path d="M328,146l1,1Z" transform="translate(-104 100)" fill="#7b6e67"/><path d="M343,146l1,1Z" transform="translate(-104 100)" fill="#7b6e67"/><path d="M350,146l1,1-1-1m4,0,1,1Z" transform="translate(-104 100)" fill="#5c4d44"/><path d="M243,147l1,1Z" transform="translate(-104 100)" fill="#b2a59d"/><path d="M246,147l1,1Z" transform="translate(-104 100)" fill="#7b6e67"/><path d="M279,147l1,1-1-1m49,0,1,1-1-1m22,0,1,1Z" transform="translate(-104 100)" fill="#b2a59d"/><path d="M246,148l1,1Z" transform="translate(-104 100)" fill="#5c4d44"/><path d="M276,148l1,1-1-1m63,0,1,1-1-1m14,0,1,1Z" transform="translate(-104 100)" fill="#7b6e67"/><path d="M280,149l1,1Z" transform="translate(-104 100)" fill="#5c4d44"/><path d="M339,149l1,1-1-1m3,0,1,1-1-1m-100,1,1,1-1-1m3,0,1,1-1-1m32,0,1,1-1-1m3,0,1,1Z" transform="translate(-104 100)" fill="#b2a59d"/><path d="M342,150l1,1Z" transform="translate(-104 100)" fill="#5c4d44"/><path d="M349,150l1,1-1-1m3,0,1,1Z" transform="translate(-104 100)" fill="#b2a59d"/><path d="M245,151l1,1Z" transform="translate(-104 100)" fill="#7b6e67"/><path d="M277,151l1,1Z" transform="translate(-104 100)" fill="#5c4d44"/><path d="M352,151l1,1-1-1m-111,1,1,1Z" transform="translate(-104 100)" fill="#7b6e67"/><path d="M281,152l1,1Z" transform="translate(-104 100)" fill="#5c4d44"/><path d="M338,152l1,1Z" transform="translate(-104 100)" fill="#7b6e67"/><path d="M348,152l1,1Z" transform="translate(-104 100)" fill="#5c4d44"/><path d="M244,153l1,1Z" transform="translate(-104 100)" fill="#b2a59d"/><path d="M281,153l1,1Z" transform="translate(-104 100)" fill="#7b6e67"/><path d="M338,153l1,1Z" transform="translate(-104 100)" fill="#b2a59d"/><path d="M348,153l1,1-1-1m-108,1,1,1-1-1m38,0,1,1Z" transform="translate(-104 100)" fill="#7b6e67"/><path d="M341,154l1,1Z" transform="translate(-104 100)" fill="#5c4d44"/><path d="M348,154l1,1-1-1m3,0,1,1-1-1m-108,1,1,1Z" transform="translate(-104 100)" fill="#b2a59d"/><path d="M351,155l1,1Z" transform="translate(-104 100)" fill="#5c4d44"/><path d="M239,156l1,1Z" transform="translate(-104 100)" fill="#b2a59d"/><path d="M337,156l1,1Z" transform="translate(-104 100)" fill="#7b6e67"/><path d="M365,156l1,1Z" transform="translate(-104 100)" fill="#5c4d44"/><path d="M366,156l1,1Z" transform="translate(-104 100)" fill="#b2a59d"/><path d="M367,156l1,1-1-1m-129,1,1,1Z" transform="translate(-104 100)" fill="#7b6e67"/><path d="M242,157l1,1-1-1m37,0,1,1-1-1m3,0,1,1-1-1m55,0,1,1-1-1m3,0,1,1Z" transform="translate(-104 100)" fill="#b2a59d"/><path d="M347,157l1,1Z" transform="translate(-104 100)" fill="#7b6e67"/><path d="M365,157c-10.576,22.529-13.711,51.464-43,57.327-5.382,1.078-10.64-.9-16-1.327,5.158,7.529,21.128,4.037,28,.623,21.34-10.6,26.678-36.155,34-56.623l1.75-4.859a7.78,7.78,0,0,0-2.687,1.734A12.973,12.973,0,0,0,365,157Z" transform="translate(-104 100)" fill="#fdfcfa"/><path d="M279,158l1,1Z" transform="translate(-104 100)" fill="#7b6e67"/><path d="M279,159l1,1Z" transform="translate(-104 100)" fill="#5c4d44"/><path d="M350,159l1,1-1-1m17,0,1,1Z" transform="translate(-104 100)" fill="#7b6e67"/><path d="M236,160l1,1Z" transform="translate(-104 100)" fill="#b2a59d"/><path d="M366,160l1,1Z" transform="translate(-104 100)" fill="#b2a59d"/><path d="M235,161l1,1Z" transform="translate(-104 100)" fill="#7b6e67"/><path d="M239,161l1,1Z" transform="translate(-104 100)" fill="#b2a59d"/><path d="M336,161l1,1Z" transform="translate(-104 100)" fill="#7b6e67"/><path d="M339,161l1,1Z" transform="translate(-104 100)" fill="#b2a59d"/><path d="M366,161l1,1-1-1m-132,1,1,1Z" transform="translate(-104 100)" fill="#5c4d44"/><path d="M280,162l1,1-1-1m3,0,1,1-1-1m53,0,1,1Z" transform="translate(-104 100)" fill="#b2a59d"/><path d="M362,162l1,1-1-1m3,0,1,1Z" transform="translate(-104 100)" fill="#b2a59d"/><path d="M365,163l1,1Z" transform="translate(-104 100)" fill="#7b6e67"/><path d="M237,164l1,1Z" transform="translate(-104 100)" fill="#5c4d44"/><path d="M361,164l1,1Z" transform="translate(-104 100)" fill="#7b6e67"/><path d="M236,165l1,1-1-1m48,0,1,1Z" transform="translate(-104 100)" fill="#5c4d44"/><path d="M335,165l1,1-1-1m14,0,1,1Z" transform="translate(-104 100)" fill="#7b6e67"/><path d="M361,165l1,1-1-1m3,0,1,1Z" transform="translate(-104 100)" fill="#b2a59d"/><path d="M231,166l1,1-1-1m4,0,1,1Z" transform="translate(-104 100)" fill="#7b6e67"/><path d="M364,166l1,1Z" transform="translate(-104 100)" fill="#5c4d44"/><path d="M230,167l1,1Z" transform="translate(-104 100)" fill="#7b6e67"/><path d="M234,167l1,1Z" transform="translate(-104 100)" fill="#b2a59d"/><path d="M338,167l1,1Z" transform="translate(-104 100)" fill="#7b6e67"/><path d="M360,167l1,1Z" transform="translate(-104 100)" fill="#5c4d44"/><path d="M229,168l1,1Z" transform="translate(-104 100)" fill="#7b6e67"/><path d="M233,168l1,1Z" transform="translate(-104 100)" fill="#b2a59d"/><path d="M360,168l1,1-1-1m3,0,1,1Z" transform="translate(-104 100)" fill="#b2a59d"/><path d="M334,169l1,1Z" transform="translate(-104 100)" fill="#5c4d44"/><path d="M363,169l1,1Z" transform="translate(-104 100)" fill="#7b6e67"/><path d="M228,170l1,1Z" transform="translate(-104 100)" fill="#b2a59d"/><path d="M232,170l1,1Z" transform="translate(-104 100)" fill="#5c4d44"/><path d="M334,170l1,1Z" transform="translate(-104 100)" fill="#7b6e67"/><path d="M231,171l1,1-1-1m54,0,1,1Z" transform="translate(-104 100)" fill="#7b6e67"/><path d="M334,171l1,1Z" transform="translate(-104 100)" fill="#b2a59d"/><path d="M230,172l1,1-1-1m52,0,1,1-1-1m3,0,1,1Z" transform="translate(-104 100)" fill="#b2a59d"/><path d="M337,172l1,1Z" transform="translate(-104 100)" fill="#5c4d44"/><path d="M362,172l1,1Z" transform="translate(-104 100)" fill="#b2a59d"/><path d="M282,173l1,1-1-1m51,0,1,1-1-1m29,0,1,1Z" transform="translate(-104 100)" fill="#5c4d44"/><path d="M225,174l1,1Z" transform="translate(-104 100)" fill="#b2a59d"/><path d="M358,174l1,1Z" transform="translate(-104 100)" fill="#7b6e67"/><path d="M283,176l1,1Z" transform="translate(-104 100)" fill="#7b6e67"/><path d="M286,176l1,1-1-1m39,0,1,1Z" transform="translate(-104 100)" fill="#b2a59d"/><path d="M336,176l1,1Z" transform="translate(-104 100)" fill="#5c4d44"/><path d="M223,177l1,1-1-1m4,0,1,1-1-1m56,0,1,1Z" transform="translate(-104 100)" fill="#5c4d44"/><path d="M328,177l1,1-1-1m29,0,1,1Z" transform="translate(-104 100)" fill="#7b6e67"/><path d="M223,178l1,1Z" transform="translate(-104 100)" fill="#b2a59d"/><path d="M287,178l1,1Z" transform="translate(-104 100)" fill="#7b6e67"/><path d="M328,178l1,1Z" transform="translate(-104 100)" fill="#5c4d44"/><path d="M332,178l1,1Z" transform="translate(-104 100)" fill="#7b6e67"/><path d="M347,178l1,1Z" transform="translate(-104 100)" fill="#5c4d44"/><path d="M357,178l1,1-1-1m3,0,1,1Z" transform="translate(-104 100)" fill="#b2a59d"/><path d="M226,179l1,1Z" transform="translate(-104 100)" fill="#5c4d44"/><path d="M284,179l1,1-1-1m3,0,1,1Z" transform="translate(-104 100)" fill="#b2a59d"/><path d="M324,179l1,1Z" transform="translate(-104 100)" fill="#7b6e67"/><path d="M332,179l1,1-1-1m3,0,1,1Z" transform="translate(-104 100)" fill="#b2a59d"/><path d="M360,179l1,1Z" transform="translate(-104 100)" fill="#5c4d44"/><path d="M366,179c-3.416,7.193-5.233,15.055-9.174,22-7.775,13.7-23.581,24.546-39.826,22.826-7.889-.835-13.844-5.118-21-7.826,3.261,10.021,18.408,10.041,27,10,25.083-.122,41.114-24.416,45-47a6.66,6.66,0,0,0,0-1.656,6.851,6.851,0,0,0-.562-1.766Z" transform="translate(-104 100)" fill="#fdfcfa"/><path d="M222,180l1,1Z" transform="translate(-104 100)" fill="#7b6e67"/><path d="M284,180l1,1-1-1m4,0,1,1Z" transform="translate(-104 100)" fill="#5c4d44"/><path d="M324,180l1,1-1-1m3,0,1,1Z" transform="translate(-104 100)" fill="#b2a59d"/><path d="M356,180l1,1Z" transform="translate(-104 100)" fill="#7b6e67"/><path d="M365,180l1,1Z" transform="translate(-104 100)" fill="#b2a59d"/><path d="M225,181l1,1Z" transform="translate(-104 100)" fill="#7b6e67"/><path d="M288,181l1,1Z" transform="translate(-104 100)" fill="#b2a59d"/><path d="M327,181l1,1-1-1m4,0,1,1Z" transform="translate(-104 100)" fill="#5c4d44"/><path d="M343,181l1,1Z" transform="translate(-104 100)" fill="#7b6e67"/><path d="M346,181l1,1-1-1m13,0,1,1Z" transform="translate(-104 100)" fill="#b2a59d"/><path d="M364,181l1,1Z" transform="translate(-104 100)" fill="#7b6e67"/><path d="M285,182l1,1-1-1m38,0,1,1Z" transform="translate(-104 100)" fill="#7b6e67"/><path d="M331,182l1,1-1-1m3,0,1,1-1-1m9,0,1,1Z" transform="translate(-104 100)" fill="#b2a59d"/><path d="M346,182l1,1Z" transform="translate(-104 100)" fill="#7b6e67"/><path d="M367,182l1,1Z" transform="translate(-104 100)" fill="#b2a59d"/><path d="M289,183l1,1Z" transform="translate(-104 100)" fill="#7b6e67"/><path d="M323,183l1,1-1-1m3,0,1,1Z" transform="translate(-104 100)" fill="#b2a59d"/><path d="M334,183l1,1-1-1m12,0,1,1Z" transform="translate(-104 100)" fill="#5c4d44"/><path d="M355,183l1,1Z" transform="translate(-104 100)" fill="#b2a59d"/><path d="M363,183l1,1Z" transform="translate(-104 100)" fill="#5c4d44"/><path d="M286,184l1,1Z" transform="translate(-104 100)" fill="#7b6e67"/><path d="M322,184l1,1-1-1m4,0,1,1Z" transform="translate(-104 100)" fill="#5c4d44"/><path d="M330,184l1,1Z" transform="translate(-104 100)" fill="#7b6e67"/><path d="M363,184l1,1-1-1m3,0,1,1Z" transform="translate(-104 100)" fill="#b2a59d"/><path d="M290,185l1,1-1-1m32,0,1,1-1-1m11,0,1,1Z" transform="translate(-104 100)" fill="#b2a59d"/><path d="M342,185l1,1Z" transform="translate(-104 100)" fill="#7b6e67"/><path d="M345,185l1,1Z" transform="translate(-104 100)" fill="#b2a59d"/><path d="M354,185l1,1Z" transform="translate(-104 100)" fill="#7b6e67"/><path d="M366,185l1,1Z" transform="translate(-104 100)" fill="#5c4d44"/><path d="M261,186l1,1Z" transform="translate(-104 100)" fill="#5c4d44"/><path d="M262,186l1,1-1-1m11,0,1,1Z" transform="translate(-104 100)" fill="#b2a59d"/><path d="M274,186l1,1Z" transform="translate(-104 100)" fill="#5c4d44"/><path d="M287,186l1,1Z" transform="translate(-104 100)" fill="#7b6e67"/><path d="M291,186l1,1-1-1m30,0,1,1Z" transform="translate(-104 100)" fill="#5c4d44"/><path d="M325,186l1,1Z" transform="translate(-104 100)" fill="#7b6e67"/><path d="M329,186l1,1Z" transform="translate(-104 100)" fill="#5c4d44"/><path d="M345,186l1,1Z" transform="translate(-104 100)" fill="#7b6e67"/><path d="M357,186l1,1Z" transform="translate(-104 100)" fill="#b2a59d"/><path d="M362,186l1,1-1-1m-103,1,1,1Z" transform="translate(-104 100)" fill="#7b6e67"/><path d="M276,187l1,1Z" transform="translate(-104 100)" fill="#b2a59d"/><path d="M329,187l1,1Z" transform="translate(-104 100)" fill="#b2a59d"/><path d="M341,187l1,1Z" transform="translate(-104 100)" fill="#5c4d44"/><path d="M353,187l1,1Z" transform="translate(-104 100)" fill="#7b6e67"/><path d="M365,187l1,1Z" transform="translate(-104 100)" fill="#b2a59d"/><path d="M257,188l1,1Z" transform="translate(-104 100)" fill="#7b6e67"/><path d="M278,188l1,1Z" transform="translate(-104 100)" fill="#b2a59d"/><path d="M288,188l1,1Z" transform="translate(-104 100)" fill="#5c4d44"/><path d="M292,188l1,1-1-1m28,0,1,1Z" transform="translate(-104 100)" fill="#b2a59d"/><path d="M324,188l1,1-1-1m8,0,1,1Z" transform="translate(-104 100)" fill="#7b6e67"/><path d="M341,188l1,1-1-1m3,0,1,1-1-1m12,0,1,1Z" transform="translate(-104 100)" fill="#b2a59d"/><path d="M365,188l1,1-1-1m-110,1,1,1Z" transform="translate(-104 100)" fill="#5c4d44"/><path d="M262,189l1,1Z" transform="translate(-104 100)" fill="#b2a59d"/><path d="M273,189l1,1Z" transform="translate(-104 100)" fill="#b2a59d"/><path d="M280,189l1,1Z" transform="translate(-104 100)" fill="#5c4d44"/><path d="M289,189l1,1-1-1m4,0,1,1Z" transform="translate(-104 100)" fill="#b2a59d"/><path d="M319,189l1,1Z" transform="translate(-104 100)" fill="#7b6e67"/><path d="M323,189l1,1-1-1m5,0,1,1Z" transform="translate(-104 100)" fill="#b2a59d"/><path d="M344,189l1,1-1-1m8,0,1,1-1-1m9,0,1,1Z" transform="translate(-104 100)" fill="#7b6e67"/><path d="M254,190l1,1Z" transform="translate(-104 100)" fill="#5c4d44"/><path d="M260,190l1,1Z" transform="translate(-104 100)" fill="#b2a59d"/><path d="M275,190l1,1-1-1m6,0,1,1Z" transform="translate(-104 100)" fill="#7b6e67"/><path d="M290,190l1,1Z" transform="translate(-104 100)" fill="#b2a59d"/><path d="M294,190l1,1-1-1m37,0,1,1-1-1m9,0,1,1Z" transform="translate(-104 100)" fill="#7b6e67"/><path d="M253,191l1,1Z" transform="translate(-104 100)" fill="#5c4d44"/><path d="M258,191l1,1-1-1m19,0,1,1Z" transform="translate(-104 100)" fill="#b2a59d"/><path d="M282,191l1,1Z" transform="translate(-104 100)" fill="#7b6e67"/><path d="M295,191l1,1Z" transform="translate(-104 100)" fill="#b2a59d"/><path d="M322,191l1,1Z" transform="translate(-104 100)" fill="#5c4d44"/><path d="M327,191l1,1-1-1m13,0,1,1-1-1m3,0,1,1Z" transform="translate(-104 100)" fill="#b2a59d"/><path d="M351,191l1,1Z" transform="translate(-104 100)" fill="#7b6e67"/><path d="M364,191l1,1-1-1m-107,1,1,1-1-1m21,0,1,1Z" transform="translate(-104 100)" fill="#5c4d44"/><path d="M296,192l1,1Z" transform="translate(-104 100)" fill="#b2a59d"/><path d="M316,192l1,1Z" transform="translate(-104 100)" fill="#5c4d44"/><path d="M321,192l1,1Z" transform="translate(-104 100)" fill="#7b6e67"/><path d="M326,192l1,1-1-1m13,0,1,1Z" transform="translate(-104 100)" fill="#5c4d44"/><path d="M354,192l1,1Z" transform="translate(-104 100)" fill="#b2a59d"/><path d="M360,192l1,1Z" transform="translate(-104 100)" fill="#5c4d44"/><path d="M221,193l1,1Z" transform="translate(-104 100)" fill="#7b6e67"/><path d="M256,193l1,1Z" transform="translate(-104 100)" fill="#5c4d44"/><path d="M280,193l1,1-1-1m13,0,1,1Z" transform="translate(-104 100)" fill="#b2a59d"/><path d="M298,193l1,1-1-1m17,0,1,1-1-1m5,0,1,1Z" transform="translate(-104 100)" fill="#7b6e67"/><path d="M329,193l1,1-1-1m10,0,1,1-1-1m3,0,1,1-1-1m8,0,1,1-1-1m10,0,1,1-1-1m3,0,1,1Z" transform="translate(-104 100)" fill="#b2a59d"/><path d="M251,194l1,1Z" transform="translate(-104 100)" fill="#b2a59d"/><path d="M300,194l1,1-1-1m13,0,1,1-1-1m6,0,1,1Z" transform="translate(-104 100)" fill="#5c4d44"/><path d="M325,194l1,1Z" transform="translate(-104 100)" fill="#b2a59d"/><path d="M338,194l1,1-1-1m15,0,1,1Z" transform="translate(-104 100)" fill="#7b6e67"/><path d="M363,194l1,1-1-1m-138,1,1,1Z" transform="translate(-104 100)" fill="#5c4d44"/><path d="M254,195l1,1Z" transform="translate(-104 100)" fill="#b2a59d"/><path d="M295,195l1,1-1-1m7,0,1,1Z" transform="translate(-104 100)" fill="#7b6e67"/><path d="M303,195l1,1-1-1m7,0,1,1Z" transform="translate(-104 100)" fill="#5c4d44"/><path d="M311,195l1,1Z" transform="translate(-104 100)" fill="#7b6e67"/><path d="M318,195l1,1Z" transform="translate(-104 100)" fill="#5c4d44"/><path d="M324,195l1,1-1-1m4,0,1,1Z" transform="translate(-104 100)" fill="#7b6e67"/><path d="M341,195l1,1Z" transform="translate(-104 100)" fill="#b2a59d"/><path d="M359,195l1,1Z" transform="translate(-104 100)" fill="#7b6e67"/><path d="M316,196l1,1Z" transform="translate(-104 100)" fill="#7b6e67"/><path d="M323,196l1,1Z" transform="translate(-104 100)" fill="#5c4d44"/><path d="M337,196l1,1-1-1m11,0,1,1Z" transform="translate(-104 100)" fill="#b2a59d"/><path d="M352,196l1,1Z" transform="translate(-104 100)" fill="#5c4d44"/><path d="M362,196l1,1Z" transform="translate(-104 100)" fill="#b2a59d"/><path d="M222,197l1,1-1-1m31,0,1,1Z" transform="translate(-104 100)" fill="#7b6e67"/><path d="M299,197l1,1-1-1m15,0,1,1Z" transform="translate(-104 100)" fill="#b2a59d"/><path d="M315,197l1,1Z" transform="translate(-104 100)" fill="#5c4d44"/><path d="M322,197l1,1-1-1m14,0,1,1Z" transform="translate(-104 100)" fill="#7b6e67"/><path d="M340,197l1,1-1-1m11,0,1,1Z" transform="translate(-104 100)" fill="#b2a59d"/><path d="M358,197l1,1-1-1m-132,1,1,1Z" transform="translate(-104 100)" fill="#5c4d44"/><path d="M249,198l1,1Z" transform="translate(-104 100)" fill="#b2a59d"/><path d="M301,198l1,1Z" transform="translate(-104 100)" fill="#7b6e67"/><path d="M302,198l1,1Z" transform="translate(-104 100)" fill="#b2a59d"/><path d="M312,198l1,1-1-1m9,0,1,1Z" transform="translate(-104 100)" fill="#7b6e67"/><path d="M361,198l1,1-1-1m-135,1,1,1-1-1m26,0,1,1Z" transform="translate(-104 100)" fill="#b2a59d"/><path d="M320,199l1,1Z" transform="translate(-104 100)" fill="#b2a59d"/><path d="M325,199l1,1Z" transform="translate(-104 100)" fill="#5c4d44"/><path d="M346,199l1,1Z" transform="translate(-104 100)" fill="#b2a59d"/><path d="M350,199l1,1-1-1m7,0,1,1-1-1m4,0,1,1Z" transform="translate(-104 100)" fill="#5c4d44"/><path d="M223,200l1,1Z" transform="translate(-104 100)" fill="#7b6e67"/><path d="M318,200l1,1-1-1m20,0,1,1Z" transform="translate(-104 100)" fill="#5c4d44"/><path d="M345,200l1,1-1-1m4,0,1,1-1-1m8,0,1,1-1-1m3,0,1,1Z" transform="translate(-104 100)" fill="#b2a59d"/><path d="M227,201l1,1-1-1m21,0,1,1Z" transform="translate(-104 100)" fill="#7b6e67"/><path d="M317,201l1,1-1-1m16,0,1,1-1-1m4,0,1,1Z" transform="translate(-104 100)" fill="#b2a59d"/><path d="M344,201l1,1Z" transform="translate(-104 100)" fill="#7b6e67"/><path d="M348,201l1,1Z" transform="translate(-104 100)" fill="#b2a59d"/><path d="M356,201l1,1Z" transform="translate(-104 100)" fill="#7b6e67"/><path d="M360,201l1,1Z" transform="translate(-104 100)" fill="#5c4d44"/><path d="M314,202l1,1Z" transform="translate(-104 100)" fill="#5c4d44"/><path d="M315,202l1,1-1-1m6,0,1,1-1-1m15,0,1,1Z" transform="translate(-104 100)" fill="#b2a59d"/><path d="M343,202l1,1Z" transform="translate(-104 100)" fill="#7b6e67"/><path d="M359,202l1,1-1-1m-131,1,1,1Z" transform="translate(-104 100)" fill="#b2a59d"/><path d="M320,203l1,1-1-1m10,0,1,1Z" transform="translate(-104 100)" fill="#5c4d44"/><path d="M335,203l1,1Z" transform="translate(-104 100)" fill="#b2a59d"/><path d="M342,203l1,1Z" transform="translate(-104 100)" fill="#5c4d44"/><path d="M355,203l1,1-1-1m-130,1,1,1Z" transform="translate(-104 100)" fill="#b2a59d"/><path d="M318,204l1,1Z" transform="translate(-104 100)" fill="#7b6e67"/><path d="M329,204l1,1-1-1m5,0,1,1Z" transform="translate(-104 100)" fill="#b2a59d"/><path d="M341,204l1,1Z" transform="translate(-104 100)" fill="#7b6e67"/><path d="M354,204l1,1Z" transform="translate(-104 100)" fill="#5c4d44"/><path d="M358,204l1,1Z" transform="translate(-104 100)" fill="#7b6e67"/><path d="M229,205l1,1Z" transform="translate(-104 100)" fill="#b2a59d"/><path d="M315,205l1,1Z" transform="translate(-104 100)" fill="#b2a59d"/><path d="M316,205l1,1Z" transform="translate(-104 100)" fill="#5c4d44"/><path d="M327,205l1,1-1-1m6,0,1,1-1-1m7,0,1,1-1-1m-114,1,1,1-1-1m4,0,1,1Z" transform="translate(-104 100)" fill="#7b6e67"/><path d="M325,206l1,1Z" transform="translate(-104 100)" fill="#7b6e67"/><path d="M332,206l1,1Z" transform="translate(-104 100)" fill="#5c4d44"/><path d="M339,206l1,1-1-1m14,0,1,1Z" transform="translate(-104 100)" fill="#b2a59d"/><path d="M321,207l1,1Z" transform="translate(-104 100)" fill="#5c4d44"/><path d="M322,207l1,1-1-1m8,0,1,1-1-1m8,0,1,1Z" transform="translate(-104 100)" fill="#b2a59d"/><path d="M352,207l1,1-1-1m4,0,1,1Z" transform="translate(-104 100)" fill="#7b6e67"/><path d="M227,208l1,1Z" transform="translate(-104 100)" fill="#5c4d44"/><path d="M315,208l1,1-1-1m13,0,1,1Z" transform="translate(-104 100)" fill="#b2a59d"/><path d="M336,208l1,1Z" transform="translate(-104 100)" fill="#7b6e67"/><path d="M351,208l1,1Z" transform="translate(-104 100)" fill="#5c4d44"/><path d="M355,208l1,1Z" transform="translate(-104 100)" fill="#b2a59d"/><path d="M232,209l1,1Z" transform="translate(-104 100)" fill="#b2a59d"/><path d="M326,209l1,1Z" transform="translate(-104 100)" fill="#7b6e67"/><path d="M334,209l1,1Z" transform="translate(-104 100)" fill="#5c4d44"/><path d="M335,209l1,1-1-1m5,0,1,1Z" transform="translate(-104 100)" fill="#b2a59d"/><path d="M363,209l1,1Z" transform="translate(-104 100)" fill="#5c4d44"/><path d="M364,209l1,1Z" transform="translate(-104 100)" fill="#b2a59d"/><path d="M322,229l-3.625.125a3.986,3.986,0,0,0,1.422,1.328A6.534,6.534,0,0,0,322,231c9.493,0,18.661-1.626,27-6.465,8.054-4.673,13.656-11.544,23-13.535-6.2-4.672-12.183,1.656-17,5.539A55.577,55.577,0,0,1,322,229Z" transform="translate(-104 100)" fill="#fdfcfa"/><path d="M371,209l1,1-1-1m-142,1,1,1Z" transform="translate(-104 100)" fill="#b2a59d"/><path d="M233,210l1,1Z" transform="translate(-104 100)" fill="#7b6e67"/><path d="M315,210l1,1-1-1m7,0,1,1Z" transform="translate(-104 100)" fill="#b2a59d"/><path d="M323,210l1,1Z" transform="translate(-104 100)" fill="#7b6e67"/><path d="M332,210l1,1Z" transform="translate(-104 100)" fill="#5c4d44"/><path d="M333,210l1,1Z" transform="translate(-104 100)" fill="#b2a59d"/><path d="M339,210l1,1Z" transform="translate(-104 100)" fill="#5c4d44"/><path d="M362,210l1,1Z" transform="translate(-104 100)" fill="#b2a59d"/><path d="M234,211l1,1-1-1m14,0,1,1Z" transform="translate(-104 100)" fill="#7b6e67"/><path d="M251,211l1,1-1-1m80,0,1,1-1-1m6,0,1,1Z" transform="translate(-104 100)" fill="#b2a59d"/><path d="M353,211l1,1Z" transform="translate(-104 100)" fill="#5c4d44"/><path d="M360,211l1,1Z" transform="translate(-104 100)" fill="#7b6e67"/><path d="M230,212l1,1Z" transform="translate(-104 100)" fill="#5c4d44"/><path d="M235,212l1,1Z" transform="translate(-104 100)" fill="#7b6e67"/><path d="M306,212l1,1Z" transform="translate(-104 100)" fill="#5c4d44"/><path d="M307,212l1,1Z" transform="translate(-104 100)" fill="#b2a59d"/><path d="M308,212l1,1Z" transform="translate(-104 100)" fill="#7b6e67"/><path d="M328,212l1,1Z" transform="translate(-104 100)" fill="#5c4d44"/><path d="M336,212l1,1-1-1m16,0,1,1-1-1m7,0,1,1Z" transform="translate(-104 100)" fill="#7b6e67"/><path d="M365,212l1,1-1-1m-134,1,1,1Z" transform="translate(-104 100)" fill="#5c4d44"/><path d="M236,213l1,1Z" transform="translate(-104 100)" fill="#7b6e67"/><path d="M310,213l1,1Z" transform="translate(-104 100)" fill="#b2a59d"/><path d="M325,213l1,1-1-1m9,0,1,1Z" transform="translate(-104 100)" fill="#7b6e67"/><path d="M346,213l1,1Z" transform="translate(-104 100)" fill="#5c4d44"/><path d="M351,213l1,1-1-1m7,0,1,1-1-1m5,0,1,1Z" transform="translate(-104 100)" fill="#7b6e67"/><path d="M232,214l1,1Z" transform="translate(-104 100)" fill="#5c4d44"/><path d="M237,214l1,1-1-1m15,0,1,1Z" transform="translate(-104 100)" fill="#7b6e67"/><path d="M332,214l1,1-1-1m13,0,1,1Z" transform="translate(-104 100)" fill="#7b6e67"/><path d="M350,214l1,1Z" transform="translate(-104 100)" fill="#5c4d44"/><path d="M357,214l1,1Z" transform="translate(-104 100)" fill="#b2a59d"/><path d="M362,214l1,1Z" transform="translate(-104 100)" fill="#5c4d44"/><path d="M238,215l1,1-1-1m11,0,1,1-1-1m3,0,1,1-1-1m55,0,1,1-1-1m22,0,1,1Z" transform="translate(-104 100)" fill="#b2a59d"/><path d="M330,215l1,1Z" transform="translate(-104 100)" fill="#5c4d44"/><path d="M344,215l1,1Z" transform="translate(-104 100)" fill="#b2a59d"/><path d="M349,215l1,1Z" transform="translate(-104 100)" fill="#5c4d44"/><path d="M356,215l1,1Z" transform="translate(-104 100)" fill="#b2a59d"/><path d="M249,216l1,1Z" transform="translate(-104 100)" fill="#5c4d44"/><path d="M298,216l1,1-1-1m11,0,1,1Z" transform="translate(-104 100)" fill="#7b6e67"/><path d="M310,216l1,1-1-1m15,0,1,1Z" transform="translate(-104 100)" fill="#b2a59d"/><path d="M326,216l1,1Z" transform="translate(-104 100)" fill="#7b6e67"/><path d="M327,216l1,1-1-1m21,0,1,1Z" transform="translate(-104 100)" fill="#5c4d44"/><path d="M355,216l1,1Z" transform="translate(-104 100)" fill="#b2a59d"/><path d="M241,217l1,1Z" transform="translate(-104 100)" fill="#5c4d44"/><path d="M253,217l1,1Z" transform="translate(-104 100)" fill="#7b6e67"/><path d="M299,217l1,1Z" transform="translate(-104 100)" fill="#b2a59d"/><path d="M346,217l1,1-1-1m12,0,1,1-1-1m-121,1,1,1Z" transform="translate(-104 100)" fill="#b2a59d"/><path d="M242,218l1,1Z" transform="translate(-104 100)" fill="#7b6e67"/><path d="M250,218l1,1Z" transform="translate(-104 100)" fill="#b2a59d"/><path d="M301,218l1,1Z" transform="translate(-104 100)" fill="#5c4d44"/><path d="M345,218l1,1Z" transform="translate(-104 100)" fill="#b2a59d"/><path d="M352,218l1,1Z" transform="translate(-104 100)" fill="#7b6e67"/><path d="M357,218l1,1Z" transform="translate(-104 100)" fill="#b2a59d"/><path d="M238,219l1,1-1-1m16,0,1,1Z" transform="translate(-104 100)" fill="#7b6e67"/><path d="M296,219l1,1Z" transform="translate(-104 100)" fill="#5c4d44"/><path d="M297,219l1,1-1-1m5,0,1,1Z" transform="translate(-104 100)" fill="#b2a59d"/><path d="M303,219l1,1Z" transform="translate(-104 100)" fill="#5c4d44"/><path d="M338,219l1,1-1-1m13,0,1,1Z" transform="translate(-104 100)" fill="#b2a59d"/><path d="M356,219l1,1-1-1m-117,1,1,1-1-1m6,0,1,1Z" transform="translate(-104 100)" fill="#7b6e67"/><path d="M249,220l1,1Z" transform="translate(-104 100)" fill="#5c4d44"/><path d="M251,220l1,1-1-1m47,0,1,1-1-1m6,0,1,1Z" transform="translate(-104 100)" fill="#b2a59d"/><path d="M305,220l1,1Z" transform="translate(-104 100)" fill="#5c4d44"/><path d="M336,220l1,1-1-1m6,0,1,1Z" transform="translate(-104 100)" fill="#b2a59d"/><path d="M349,220l1,1-1-1m6,0,1,1Z" transform="translate(-104 100)" fill="#5c4d44"/><path d="M241,221l1,1-1-1m5,0,1,1Z" transform="translate(-104 100)" fill="#b2a59d"/><path d="M255,221l1,1Z" transform="translate(-104 100)" fill="#5c4d44"/><path d="M307,221l1,1Z" transform="translate(-104 100)" fill="#b2a59d"/><path d="M332,221l1,1Z" transform="translate(-104 100)" fill="#5c4d44"/><path d="M333,221l1,1-1-1m7,0,1,1-1-1m8,0,1,1-1-1m5,0,1,1Z" transform="translate(-104 100)" fill="#b2a59d"/><path d="M358,221l1,1Z" transform="translate(-104 100)" fill="#5c4d44"/><path d="M242,222l1,1-1-1m6,0,1,1Z" transform="translate(-104 100)" fill="#7b6e67"/><path d="M252,222l1,1Z" transform="translate(-104 100)" fill="#b2a59d"/><path d="M301,222l1,1Z" transform="translate(-104 100)" fill="#5c4d44"/><path d="M302,222l1,1-1-1m8,0,1,1Z" transform="translate(-104 100)" fill="#b2a59d"/><path d="M329,222l1,1Z" transform="translate(-104 100)" fill="#7b6e67"/><path d="M330,222l1,1Z" transform="translate(-104 100)" fill="#b2a59d"/><path d="M342,222l1,1Z" transform="translate(-104 100)" fill="#5c4d44"/><path d="M346,222l1,1Z" transform="translate(-104 100)" fill="#7b6e67"/><path d="M352,222l1,1-1-1m-108,1,1,1-1-1m5,0,1,1Z" transform="translate(-104 100)" fill="#b2a59d"/><path d="M250,223l1,1Z" transform="translate(-104 100)" fill="#5c4d44"/><path d="M256,223l1,1Z" transform="translate(-104 100)" fill="#b2a59d"/><path d="M303,223l1,1Z" transform="translate(-104 100)" fill="#5c4d44"/><path d="M245,224l1,1Z" transform="translate(-104 100)" fill="#7b6e67"/><path d="M251,224l1,1Z" transform="translate(-104 100)" fill="#b2a59d"/><path d="M333,224l1,1Z" transform="translate(-104 100)" fill="#b2a59d"/><path d="M334,224l1,1Z" transform="translate(-104 100)" fill="#7b6e67"/><path d="M341,224l1,1Z" transform="translate(-104 100)" fill="#5c4d44"/><path d="M342,224l1,1Z" transform="translate(-104 100)" fill="#b2a59d"/><path d="M349,224l1,1Z" transform="translate(-104 100)" fill="#7b6e67"/><path d="M247,225l1,1-1-1m5,0,1,1Z" transform="translate(-104 100)" fill="#b2a59d"/><path d="M309,225l1,1Z" transform="translate(-104 100)" fill="#7b6e67"/><path d="M310,225l1,1-1-1m20,0,1,1Z" transform="translate(-104 100)" fill="#b2a59d"/><path d="M331,225l1,1Z" transform="translate(-104 100)" fill="#5c4d44"/><path d="M339,225l1,1-1-1m8,0,1,1Z" transform="translate(-104 100)" fill="#7b6e67"/><path d="M336,226l1,1Z" transform="translate(-104 100)" fill="#7b6e67"/><path d="M337,226l1,1Z" transform="translate(-104 100)" fill="#b2a59d"/><path d="M345,226l1,1Z" transform="translate(-104 100)" fill="#7b6e67"/><path d="M250,227l1,1-1-1m9,0,1,1Z" transform="translate(-104 100)" fill="#7b6e67"/><path d="M292,227c2.878,5.246,9.437,7.877,15,9.561,9.884,2.993,21.011,3.665,31,.668,5.506-1.651,10.513-4.651,16-6.325,4-1.22,7.979-.224,12-.9-9.869-8.583-24.357,4.525-35,5.816-7.394.9-15.937.527-23-1.917C302.467,231.984,297.72,228.309,292,227Z" transform="translate(-104 100)" fill="#fdfcfa"/><path d="M295,227l1,1Z" transform="translate(-104 100)" fill="#5c4d44"/><path d="M331,227l1,1Z" transform="translate(-104 100)" fill="#7b6e67"/><path d="M343,227l1,1Z" transform="translate(-104 100)" fill="#7b6e67"/><path d="M353,227l1,1Z" transform="translate(-104 100)" fill="#5c4d44"/><path d="M354,227l1,1-1-1m8,0,1,1Z" transform="translate(-104 100)" fill="#b2a59d"/><path d="M363,227l1,1Z" transform="translate(-104 100)" fill="#7b6e67"/><path d="M252,228l1,1Z" transform="translate(-104 100)" fill="#b2a59d"/><path d="M260,228l1,1-1-1m31,0,1,1Z" transform="translate(-104 100)" fill="#7b6e67"/><path d="M296,228l1,1Z" transform="translate(-104 100)" fill="#b2a59d"/><path d="M321,228l1,1Z" transform="translate(-104 100)" fill="#5c4d44"/><path d="M340,228l1,1Z" transform="translate(-104 100)" fill="#7b6e67"/><path d="M350,228l1,1Z" transform="translate(-104 100)" fill="#5c4d44"/><path d="M351,228l1,1Z" transform="translate(-104 100)" fill="#b2a59d"/><path d="M365,228l1,1Z" transform="translate(-104 100)" fill="#7b6e67"/><path d="M254,229l1,1Z" transform="translate(-104 100)" fill="#b2a59d"/><path d="M292,229l1,1Z" transform="translate(-104 100)" fill="#5c4d44"/><path d="M298,229l1,1Z" transform="translate(-104 100)" fill="#7b6e67"/><path d="M337,229l1,1-1-1m11,0,1,1-1-1m-93,1,1,1Z" transform="translate(-104 100)" fill="#7b6e67"/><path d="M294,230l1,1Z" transform="translate(-104 100)" fill="#b2a59d"/><path d="M300,230l1,1Z" transform="translate(-104 100)" fill="#7b6e67"/><path d="M332,230l1,1Z" transform="translate(-104 100)" fill="#b2a59d"/><path d="M333,230l1,1-1-1m13,0,1,1Z" transform="translate(-104 100)" fill="#7b6e67"/><path d="M354,230l1,1Z" transform="translate(-104 100)" fill="#b2a59d"/><path d="M355,230l1,1Z" transform="translate(-104 100)" fill="#7b6e67"/><path d="M362,230l1,1Z" transform="translate(-104 100)" fill="#7b6e67"/><path d="M365,230l1,1Z" transform="translate(-104 100)" fill="#b2a59d"/><path d="M257,231l1,1Z" transform="translate(-104 100)" fill="#7b6e67"/><path d="M263,231l1,1Z" transform="translate(-104 100)" fill="#b2a59d"/><path d="M295,231l1,1-1-1m7,0,1,1Z" transform="translate(-104 100)" fill="#7b6e67"/><path d="M344,231l1,1Z" transform="translate(-104 100)" fill="#b2a59d"/><path d="M352,231l1,1Z" transform="translate(-104 100)" fill="#5c4d44"/><path d="M259,232l1,1-1-1m6,0,1,1-1-1m32,0,1,1Z" transform="translate(-104 100)" fill="#b2a59d"/><path d="M304,232l1,1Z" transform="translate(-104 100)" fill="#7b6e67"/><path d="M341,232l1,1Z" transform="translate(-104 100)" fill="#5c4d44"/><path d="M342,232l1,1-1-1m7,0,1,1Z" transform="translate(-104 100)" fill="#b2a59d"/><path d="M350,232l1,1Z" transform="translate(-104 100)" fill="#5c4d44"/><path d="M267,233l1,1-1-1m20,0,1,1Z" transform="translate(-104 100)" fill="#7b6e67"/><path d="M299,233l1,1-1-1m7,0,1,1Z" transform="translate(-104 100)" fill="#b2a59d"/><path d="M307,233l1,1-1-1m32,0,1,1Z" transform="translate(-104 100)" fill="#7b6e67"/><path d="M347,233l1,1Z" transform="translate(-104 100)" fill="#b2a59d"/><path d="M262,234l1,1Z" transform="translate(-104 100)" fill="#5c4d44"/><path d="M268,234l1,1Z" transform="translate(-104 100)" fill="#b2a59d"/><path d="M269,234l1,1Z" transform="translate(-104 100)" fill="#5c4d44"/><path d="M286,234l1,1Z" transform="translate(-104 100)" fill="#b2a59d"/><path d="M286,235c11.7,14.155,36.328,20.635,54,21-2.894-4.1-9.377-3.5-14-4.45a88.4,88.4,0,0,1-25-9.412C296.284,239.507,291.5,234.8,286,235Z" transform="translate(-104 100)" fill="#fdfcfa"/><path d="M301,234l1,1-1-1m8,0,1,1Z" transform="translate(-104 100)" fill="#b2a59d"/><path d="M310,234l1,1-1-1m26,0,1,1-1-1m9,0,1,1-1-1m-81,1,1,1Z" transform="translate(-104 100)" fill="#7b6e67"/><path d="M270,235l1,1-1-1m20,0,1,1Z" transform="translate(-104 100)" fill="#b2a59d"/><path d="M303,235l1,1Z" transform="translate(-104 100)" fill="#7b6e67"/><path d="M314,235l1,1Z" transform="translate(-104 100)" fill="#b2a59d"/><path d="M331,235l1,1Z" transform="translate(-104 100)" fill="#7b6e67"/><path d="M343,235l1,1Z" transform="translate(-104 100)" fill="#7b6e67"/><path d="M266,236l1,1Z" transform="translate(-104 100)" fill="#b2a59d"/><path d="M272,236l1,1-1-1m14,0,1,1Z" transform="translate(-104 100)" fill="#5c4d44"/><path d="M291,236l1,1Z" transform="translate(-104 100)" fill="#b2a59d"/><path d="M305,236l1,1Z" transform="translate(-104 100)" fill="#5c4d44"/><path d="M306,236l1,1Z" transform="translate(-104 100)" fill="#7b6e67"/><path d="M340,236l1,1Z" transform="translate(-104 100)" fill="#b2a59d"/><path d="M273,237l1,1Z" transform="translate(-104 100)" fill="#7b6e67"/><path d="M287,237l1,1Z" transform="translate(-104 100)" fill="#5c4d44"/><path d="M293,237l1,1Z" transform="translate(-104 100)" fill="#7b6e67"/><path d="M310,237l1,1-1-1m27,0,1,1Z" transform="translate(-104 100)" fill="#b2a59d"/><path d="M338,237l1,1Z" transform="translate(-104 100)" fill="#5c4d44"/><path d="M269,238l1,1-1-1m5,0,1,1-1-1m15,0,1,1-1-1m5,0,1,1Z" transform="translate(-104 100)" fill="#b2a59d"/><path d="M304,238l1,1Z" transform="translate(-104 100)" fill="#5c4d44"/><path d="M305,238c2.751,4.032,8.394,5.22,13,6.2,12.123,2.569,24.143-.39,36,1.8-.8-3.772-4.439-4.1-8-3.611-6.94.948-15.048,1.429-22,.222C317.559,241.493,311.526,238.329,305,238Z" transform="translate(-104 100)" fill="#fdfcfa"/><path d="M309,238l1,1Z" transform="translate(-104 100)" fill="#7b6e67"/><path d="M313,238l1,1Z" transform="translate(-104 100)" fill="#5c4d44"/><path d="M314,238l1,1-1-1m18,0,1,1Z" transform="translate(-104 100)" fill="#b2a59d"/><path d="M333,238l1,1Z" transform="translate(-104 100)" fill="#7b6e67"/><path d="M270,239l1,1Z" transform="translate(-104 100)" fill="#5c4d44"/><path d="M276,239l1,1Z" transform="translate(-104 100)" fill="#7b6e67"/><path d="M290,239l1,1Z" transform="translate(-104 100)" fill="#5c4d44"/><path d="M296,239l1,1-1-1m16,0,1,1Z" transform="translate(-104 100)" fill="#7b6e67"/><path d="M272,240l1,1-1-1m5,0,1,1-1-1m15,0,1,1Z" transform="translate(-104 100)" fill="#b2a59d"/><path d="M298,240l1,1Z" transform="translate(-104 100)" fill="#5c4d44"/><path d="M306,240l1,1-1-1m9,0,1,1Z" transform="translate(-104 100)" fill="#7b6e67"/><path d="M273,241l1,1Z" transform="translate(-104 100)" fill="#5c4d44"/><path d="M278,241l1,1Z" transform="translate(-104 100)" fill="#b2a59d"/><path d="M293,241l1,1Z" transform="translate(-104 100)" fill="#7b6e67"/><path d="M299,241l1,1Z" transform="translate(-104 100)" fill="#b2a59d"/><path d="M308,241l1,1Z" transform="translate(-104 100)" fill="#5c4d44"/><path d="M309,241l1,1-1-1m9,0,1,1Z" transform="translate(-104 100)" fill="#b2a59d"/><path d="M319,241l1,1Z" transform="translate(-104 100)" fill="#7b6e67"/><path d="M295,242l1,1-1-1m6,0,1,1Z" transform="translate(-104 100)" fill="#b2a59d"/><path d="M311,242l1,1Z" transform="translate(-104 100)" fill="#7b6e67"/><path d="M276,243l1,1Z" transform="translate(-104 100)" fill="#b2a59d"/><path d="M281,243l1,1-1-1m15,0,1,1Z" transform="translate(-104 100)" fill="#5c4d44"/><path d="M303,243l1,1Z" transform="translate(-104 100)" fill="#7b6e67"/><path d="M313,243l1,1Z" transform="translate(-104 100)" fill="#5c4d44"/><path d="M314,243l1,1Z" transform="translate(-104 100)" fill="#b2a59d"/><path d="M277,244l1,1Z" transform="translate(-104 100)" fill="#b2a59d"/><path d="M298,244l1,1-1-1m7,0,1,1Z" transform="translate(-104 100)" fill="#7b6e67"/><path d="M317,244l1,1Z" transform="translate(-104 100)" fill="#5c4d44"/><path d="M278,245l1,1Z" transform="translate(-104 100)" fill="#7b6e67"/><path d="M300,245l1,1-1-1m7,0,1,1Z" transform="translate(-104 100)" fill="#b2a59d"/><path d="M322,245l1,1Z" transform="translate(-104 100)" fill="#7b6e67"/><path d="M354,245l1,1Z" transform="translate(-104 100)" fill="#5c4d44"/><path d="M279,246l1,1Z" transform="translate(-104 100)" fill="#7b6e67"/><path d="M302,246l1,1-1-1m7,0,1,1Z" transform="translate(-104 100)" fill="#b2a59d"/><path d="M304,247l1,1-1-1m8,0,1,1Z" transform="translate(-104 100)" fill="#7b6e67"/><path d="M313,247l1,1-1-1m-32,1,1,1Z" transform="translate(-104 100)" fill="#5c4d44"/><path d="M306,248l1,1-1-1m9,0,1,1-1-1m-33,1,1,1Z" transform="translate(-104 100)" fill="#7b6e67"/><path d="M286,249l1,1Z" transform="translate(-104 100)" fill="#b2a59d"/><path d="M308,249l1,1Z" transform="translate(-104 100)" fill="#7b6e67"/><path d="M318,249l1,1Z" transform="translate(-104 100)" fill="#b2a59d"/><path d="M319,249l1,1Z" transform="translate(-104 100)" fill="#5c4d44"/><path d="M283,250l1,1Z" transform="translate(-104 100)" fill="#b2a59d"/><path d="M287,250l1,1-1-1m24,0,1,1Z" transform="translate(-104 100)" fill="#7b6e67"/><path d="M321,250l1,1Z" transform="translate(-104 100)" fill="#b2a59d"/><path d="M322,250l1,1Z" transform="translate(-104 100)" fill="#7b6e67"/><path d="M284,251l1,1Z" transform="translate(-104 100)" fill="#b2a59d"/><path d="M314,251l1,1Z" transform="translate(-104 100)" fill="#7b6e67"/><path d="M325,251l1,1Z" transform="translate(-104 100)" fill="#b2a59d"/><path d="M326,251l1,1Z" transform="translate(-104 100)" fill="#7b6e67"/><path d="M327,251l1,1Z" transform="translate(-104 100)" fill="#5c4d44"/><path d="M288,252l1,1Z" transform="translate(-104 100)" fill="#b2a59d"/><path d="M317,252l1,1Z" transform="translate(-104 100)" fill="#7b6e67"/><path d="M318,252l1,1Z" transform="translate(-104 100)" fill="#b2a59d"/><path d="M289,253l1,1Z" transform="translate(-104 100)" fill="#7b6e67"/><path d="M308,253l1,1Z" transform="translate(-104 100)" fill="#5c4d44"/><path d="M299,273c3.133-2.184,3.514-5.759,5.367-9,2.2-3.847,5.449-6.634,6.633-11C303.359,256.593,299.375,264.813,299,273Z" transform="translate(-104 100)" fill="#fdfcfa"/><path d="M286,254l1,1Z" transform="translate(-104 100)" fill="#b2a59d"/><path d="M307,254l1,1Z" transform="translate(-104 100)" fill="#7b6e67"/><path d="M324,254l1,1Z" transform="translate(-104 100)" fill="#5c4d44"/><path d="M325,254l1,1Z" transform="translate(-104 100)" fill="#7b6e67"/><path d="M290,255l1,1Z" transform="translate(-104 100)" fill="#b2a59d"/><path d="M306,255l1,1Z" transform="translate(-104 100)" fill="#7b6e67"/><path d="M311,255l1,1Z" transform="translate(-104 100)" fill="#5c4d44"/><path d="M287,256l1,1Z" transform="translate(-104 100)" fill="#5c4d44"/><path d="M305,256l1,1Z" transform="translate(-104 100)" fill="#7b6e67"/><path d="M310,256l1,1Z" transform="translate(-104 100)" fill="#5c4d44"/><path d="M288,257l1,1-1-1m3,0,1,1Z" transform="translate(-104 100)" fill="#b2a59d"/><path d="M304,257l1,1-1-1m-16,1,1,1Z" transform="translate(-104 100)" fill="#5c4d44"/><path d="M289,259l1,1Z" transform="translate(-104 100)" fill="#b2a59d"/><path d="M292,259l1,1Z" transform="translate(-104 100)" fill="#7b6e67"/><path d="M303,259l1,1Z" transform="translate(-104 100)" fill="#b2a59d"/><path d="M289,260l1,1-1-1m13,0,1,1-1-1m4,0,1,1Z" transform="translate(-104 100)" fill="#7b6e67"/><path d="M305,261l1,1-1-1m-15,1,1,1-1-1m3,0,1,1-1-1m8,0,1,1Z" transform="translate(-104 100)" fill="#b2a59d"/><path d="M290,263l1,1Z" transform="translate(-104 100)" fill="#5c4d44"/><path d="M304,263l1,1Z" transform="translate(-104 100)" fill="#7b6e67"/><path d="M300,264l1,1Z" transform="translate(-104 100)" fill="#b2a59d"/><path d="M294,265l1,1Z" transform="translate(-104 100)" fill="#5c4d44"/><path d="M303,265l1,1Z" transform="translate(-104 100)" fill="#7b6e67"/><path d="M291,266l1,1Z" transform="translate(-104 100)" fill="#b2a59d"/><path d="M294,266l1,1Z" transform="translate(-104 100)" fill="#7b6e67"/><path d="M299,267l1,1-1-1m3,0,1,1Z" transform="translate(-104 100)" fill="#b2a59d"/><path d="M301,273l1,1Z" transform="translate(-104 100)" fill="#5c4d44"/><path d="M294,274l1,1Z" transform="translate(-104 100)" fill="#b2a59d"/></g><g transform="matrix(1, 0, 0, 1, 103, 290)" filter="url(#a)"><path d="M287.213,236c19.733,14.215,61.276,20.723,91.085,21.089-4.882-4.117-15.817-3.515-23.614-4.469a220.145,220.145,0,0,1-42.168-9.452C304.559,240.523,296.485,235.8,287.213,236Z" transform="translate(-320.25 199.88) rotate(-38.13)" fill="#fdfcfa"/></g><g transform="matrix(1, 0, 0, 1, 103, 290)" filter="url(#c)"><path d="M286,235c15.084,14.155,46.839,20.635,69.623,21-3.731-4.1-12.09-3.5-18.051-4.45a135.91,135.91,0,0,1-32.233-9.412C299.259,239.507,293.087,234.8,286,235Z" transform="translate(-301.38 231.21) rotate(-42)" fill="#fdfcfa"/></g></g></svg>